<svg width="24" height="24" viewBox="0 0 24 24" fill="none" xmlns="http://www.w3.org/2000/svg">
<path d="M1.99988 5.24976C1.99988 4.14519 2.89531 3.24976 3.99988 3.24976H19.9999C21.1044 3.24976 21.9999 4.14519 21.9999 5.24976V16.2498C21.9999 17.3543 21.1044 18.2498 19.9999 18.2498H15.4141L12.707 20.9569C12.3165 21.3474 11.6833 21.3474 11.2928 20.9569L8.58566 18.2498H3.99988C2.89531 18.2498 1.99988 17.3543 1.99988 16.2498V5.24976ZM19.9999 5.24976H3.99988V16.2498H8.99988C9.26509 16.2498 9.51945 16.3551 9.70698 16.5426L11.9999 18.8355L14.2928 16.5426C14.4803 16.3551 14.7347 16.2498 14.9999 16.2498H19.9999V5.24976ZM5.99988 8.74976C5.99988 8.19747 6.44759 7.74976 6.99988 7.74976H16.9999C17.5522 7.74976 17.9999 8.19747 17.9999 8.74976C17.9999 9.30204 17.5522 9.74976 16.9999 9.74976H6.99988C6.44759 9.74976 5.99988 9.30204 5.99988 8.74976ZM5.99988 12.7498C5.99988 12.1975 6.44759 11.7498 6.99988 11.7498H12.9999C13.5522 11.7498 13.9999 12.1975 13.9999 12.7498C13.9999 13.302 13.5522 13.7498 12.9999 13.7498H6.99988C6.44759 13.7498 5.99988 13.302 5.99988 12.7498Z" fill="#4F5665"/>
</svg>
